<?xml version="1.0" encoding="UTF-8"?>
<svg width="14px" height="14px" viewBox="0 0 14 14" version="1.1" xmlns="http://www.w3.org/2000/svg" xmlns:xlink="http://www.w3.org/1999/xlink">
    <!-- Generator: Sketch 58 (84663) - https://sketch.com -->
    <title>形状</title>
    <desc>Created with Sketch.</desc>
    <g id="签核管理" stroke="none" stroke-width="1" fill="none" fill-rule="evenodd">
        <g id="生产审核" transform="translate(-1248.000000, -435.000000)" fill="#3892F2" fill-rule="nonzero">
            <g id="编组-5" transform="translate(1248.000000, 433.000000)">
                <g id="编组-3">
                    <g id="编组" transform="translate(0.000000, 1.000000)">
                        <path d="M7.51954019e-06,14.1249773 L7.51954019e-06,14.0642435 C7.51954019e-06,14.4362502 0.255551567,14.737513 0.57115606,14.737513 L12.9038784,14.737513 C13.219387,14.737513 13.475027,14.4362502 13.475027,14.0642435 L13.475027,14.1249773 L7.51954019e-06,14.1249773 L7.51954019e-06,14.1249773 Z M13.4748352,11.4803175 C13.4748352,11.1006108 13.2190017,10.7930917 12.9035908,10.7930917 L9.7338791,10.7930917 C8.46010474,9.99787402 8.58061101,8.98137509 8.58061101,8.98137509 C8.53133095,8.43101619 9.64581025,7.08293562 9.64581025,7.08293562 C10.1620004,6.46934116 10.4708655,5.69154438 10.4708655,4.84560929 C10.4708655,2.92513757 8.88014061,1.35721949 6.88015351,1.26251088 L6.59554268,1.26251088 C4.59526985,1.35693224 3.00473675,2.92513569 3.00473675,4.84560929 C3.003293,5.65873099 3.29444959,6.4479819 3.82998558,7.08293562 C3.82998558,7.08293562 4.94446601,8.43101431 4.89518482,8.98137509 C4.89518482,8.98137509 5.01578621,9.99777627 3.74181898,10.7930917 L0.571148541,10.7930917 C0.255544047,10.7930917 1.88293825e-13,11.1006108 1.88293825e-13,11.4803175 L1.88293825e-13,13.5124544 L13.4750157,13.5124544 L13.4748232,11.4803175 L13.4748352,11.4803175 Z M6.52903611,10.8347316 L6.73751348,10.8321716 L6.94599085,10.8347316 L6.52903611,10.8347316 Z" id="形状"></path>
                    </g>
                </g>
            </g>
        </g>
    </g>
</svg>