<?xml version="1.0" encoding="UTF-8"?>
<svg width="13px" height="12px" viewBox="0 0 13 12" version="1.1" xmlns="http://www.w3.org/2000/svg" xmlns:xlink="http://www.w3.org/1999/xlink">
    <!-- Generator: Sketch 58 (84663) - https://sketch.com -->
    <title>Shape</title>
    <desc>Created with Sketch.</desc>
    <g id="项目管理" stroke="none" stroke-width="1" fill="none" fill-rule="evenodd">
        <g id="项目管理-项目设置-客户信息" transform="translate(-1235.000000, -444.000000)" fill="#FF0F31">
            <g id="编组备份" transform="translate(1235.000000, 442.000000)">
                <path d="M1.60201523,2.15047022 C1.56868189,2.17904165 1.53534856,2.21475593 1.50201523,2.25047022 C1.53837886,2.21475593 1.56868189,2.17904165 1.60201523,2.15047022 L1.60201523,2.15047022 Z M1.47169727,2.20555307 C1.43760636,2.23769592 1.40351545,2.26983878 1.37169727,2.30555307 C1.40351545,2.26983878 1.43760636,2.23769592 1.47169727,2.20555307 L1.47169727,2.20555307 Z M11.9341693,12.137931 C11.8428124,12.229288 11.7098074,12.2803403 11.580833,12.2803403 L9.10076131,12.2803403 L9.10076131,13.0528437 C9.10076131,13.575459 8.67622033,14 8.15360502,14 L3.92028661,14 C3.39767129,14 2.97313032,13.575459 2.97313032,13.0528437 L2.97313032,12.2803403 L0.480967309,12.2803403 C0.21630094,12.2803403 -2.84217094e-14,12.0653829 -2.84217094e-14,11.799373 C-2.84217094e-14,11.5333632 0.214957456,11.3184057 0.480967309,11.3184057 L0.905508285,11.3184057 L0.905508285,2.94715629 C0.905508285,2.42454098 1.33004926,2 1.85266458,2 L10.3569189,2 C10.8795343,2 11.3040752,2.42454098 11.3040752,2.94715629 L11.3040752,11.3184057 L11.580833,11.3184057 C11.8454993,11.3184057 12.0752351,11.5333632 12.0752351,11.799373 C12.0752351,11.927004 12.0255262,12.0465741 11.9341693,12.137931 L11.9341693,12.137931 Z M3.91894313,13.0501567 L8.14957456,13.0501567 L8.14957456,12.2722794 L3.91894313,12.2722794 L3.91894313,13.0501567 L3.91894313,13.0501567 Z M10.3555755,2.94849978 L1.85266458,2.94849978 L1.85266458,11.3184057 L3.07792208,11.3184057 L10.3555755,11.3184057 L10.3555755,2.94849978 L10.3555755,2.94849978 Z M6.00403045,9.70622481 C5.75153008,9.70622481 5.54724586,9.48992387 5.54724586,9.22257053 L5.54724586,4.73533363 C5.54724586,4.4679803 5.75153008,4.25167936 6.00403045,4.25167936 C6.25653083,4.25167936 6.46081505,4.4679803 6.46081505,4.73533363 L6.46081505,9.22257053 C6.46081505,9.48992387 6.25653083,9.70622481 6.00403045,9.70622481 L6.00403045,9.70622481 Z M3.38423645,9.70622481 C3.13173608,9.70622481 2.92745186,9.48992387 2.92745186,9.22257053 L2.92745186,4.73533363 C2.92745186,4.4679803 3.13173608,4.25167936 3.38423645,4.25167936 C3.63673683,4.25167936 3.84102105,4.4679803 3.84102105,4.73533363 L3.84102105,9.22257053 C3.84102105,9.48992387 3.63673683,9.70622481 3.38423645,9.70622481 L3.38423645,9.70622481 Z M8.59695477,9.70622481 C8.3444544,9.70622481 8.14017017,9.48992387 8.14017017,9.22257053 L8.14017017,4.73533363 C8.14017017,4.4679803 8.3444544,4.25167936 8.59695477,4.25167936 C8.84945514,4.25167936 9.05373936,4.4679803 9.05373936,4.73533363 L9.05373936,9.22257053 C9.05373936,9.48992387 8.84945514,9.70622481 8.59695477,9.70622481 L8.59695477,9.70622481 Z" id="Shape" transform="translate(6.037618, 8.000000) scale(1, -1) translate(-6.037618, -8.000000) "></path>
            </g>
        </g>
    </g>
</svg>