<?xml version="1.0" encoding="UTF-8"?>
<svg width="13px" height="12px" viewBox="0 0 13 12" version="1.1" xmlns="http://www.w3.org/2000/svg" xmlns:xlink="http://www.w3.org/1999/xlink">
    <!-- Generator: Sketch 58 (84663) - https://sketch.com -->
    <title>修改</title>
    <desc>Created with Sketch.</desc>
    <g id="项目管理" stroke="none" stroke-width="1" fill="none" fill-rule="evenodd">
        <g id="项目管理-项目设置-客户信息" transform="translate(-1293.000000, -485.000000)" fill="#1AB99B" fill-rule="nonzero">
            <g id="编组备份-2" transform="translate(1235.000000, 483.000000)">
                <g id="修改" transform="translate(59.000000, 2.000000)">
                    <path d="M11.4679973,1.76325519 C11.3735668,2.10025503 11.2894852,2.41290629 11.0569216,2.60157516 C9.01821329,4.25121032 7.3842332,6.29984953 5.53572838,8.13548432 C5.48700771,8.18381689 5.42895479,8.22614694 5.39291609,8.2828127 C4.60746805,9.50680361 3.23275802,9.66312924 2.02988674,10.123799 C1.77194614,10.2224563 1.36789567,9.76278911 1.44529089,9.48979867 C1.66351724,8.720475 1.87706443,7.94948469 2.11197416,7.18517395 C2.15167537,7.05584008 2.27545819,6.94383666 2.37989872,6.84383825 C4.13832636,5.15687296 5.90576041,3.47989449 7.65552051,1.78425746 C8.07260486,1.37992797 8.4342952,0.917604612 8.81634447,0.476947576 C9.33152185,-0.117704402 10.0519178,-0.165711449 10.6134827,0.385933402 C10.9514775,0.717933317 11.3622274,1.00660059 11.4399615,1.52992558 C11.4499845,1.59791929 11.4609982,1.6656005 11.471334,1.73325567 C11.496698,1.74891948 11.4423076,1.74791689 11.4679973,1.76325519 Z M8.26979452,2.32557696 C6.56541841,4.0318909 4.86371425,5.73452 3.19905239,7.40116009 C3.48566754,7.69149401 3.80332942,8.01247847 4.08027343,8.29315108 C5.78262928,6.62950573 7.50002625,4.95119916 9.20874264,3.28122578 C8.86072485,2.92690851 8.54374074,2.6045699 8.26979452,2.32557696 Z M8.67654301,1.60458585 C9.10030071,2.00957939 9.46900328,2.36290709 9.90510407,2.77990565 C9.9828512,2.67357922 10.0585911,2.54290422 10.1603597,2.43724184 C10.8954318,1.67492327 10.8971001,1.67658991 10.1226527,0.944270854 C10.1063082,0.928607041 10.0912931,0.910938052 10.0742709,0.895938291 C9.86005896,0.703936144 9.64284925,0.701930968 9.43129625,0.895938291 C9.1873801,1.11993212 8.948482,1.3492644 8.67654301,1.60458585 L8.67654301,1.60458585 Z M2.3668909,9.20347511 C2.75895019,9.04546982 3.06858319,8.92113586 3.33318411,8.81480943 C3.12964695,8.57581585 2.94379677,8.35714746 2.72490568,8.09982083 C2.60311705,8.4754789 2.49935429,8.79447121 2.3668909,9.20347511 L2.3668909,9.20347511 Z" id="形状"></path>
                    <path d="M5.47826087,1.6173913 L0.52173913,1.6173913 C-0.0257431433,1.6173913 -0.469565217,2.06121338 -0.469565217,2.60869565 L-0.469565217,10.995 C-0.469565217,11.5424823 -0.0257431433,11.9863043 0.52173913,11.9863043 L9.41540673,11.9863043 C9.962889,11.9863043 10.4067111,11.5424823 10.4067111,10.995 L10.4067111,6.06311865 C10.4067111,5.80378495 10.1964796,5.59355344 9.93714586,5.59355344 C9.67781215,5.59355344 9.46758064,5.80378495 9.46758064,6.06311865 L9.46758064,10.995 C9.46758064,11.0238149 9.44422159,11.0471739 9.41540673,11.0471739 L0.52173913,11.0471739 C0.492924274,11.0471739 0.469565217,11.0238149 0.469565217,10.995 L0.469565217,2.60869565 C0.469565217,2.5798808 0.492924274,2.55652174 0.52173913,2.55652174 L5.47826087,2.55652174 C5.73759458,2.55652174 5.94782609,2.34629023 5.94782609,2.08695652 C5.94782609,1.82762281 5.73759458,1.6173913 5.47826087,1.6173913 Z" id="路径-3"></path>
                </g>
            </g>
        </g>
    </g>
</svg>