<?xml version="1.0" encoding="UTF-8"?>
<svg width="14px" height="11px" viewBox="0 0 14 11" version="1.1" xmlns="http://www.w3.org/2000/svg" xmlns:xlink="http://www.w3.org/1999/xlink">
    <!-- Generator: Sketch 58 (84663) - https://sketch.com -->
    <title>形状</title>
    <desc>Created with Sketch.</desc>
    <g id="物料管理" stroke="none" stroke-width="1" fill="none" fill-rule="evenodd">
        <g id="供应商管理" transform="translate(-1205.000000, -377.000000)" fill="#3892F2" fill-rule="nonzero">
            <g id="编组-3" transform="translate(1205.000000, 374.000000)">
                <path d="M6.61867225,13.3521263 C3.08999383,13.3521263 -1.10134124e-13,9.64620154 -1.10134124e-13,8.50296291 C-1.10134124e-13,7.35529311 3.08556267,3.64936839 6.61867225,3.64936839 C10.2359738,3.64936839 13.2373445,7.35529311 13.2373445,8.50296291 C13.2329133,9.64620154 10.2315427,13.3521263 6.61867225,13.3521263 Z M6.61867225,4.53116873 C3.44448643,4.53116873 0.883277395,7.88260086 0.883277395,8.50296291 C0.883277395,9.1188938 3.44153232,12.4703259 6.61867225,12.4703259 C9.79581218,12.4703259 12.3540671,9.1188938 12.3540671,8.50296291 C12.349636,7.8811238 9.79285807,4.53116873 6.61867225,4.53116873 Z M6.61867225,10.7052482 C5.38237931,10.7052482 4.41638697,9.73482469 4.41638697,8.50296291 C4.41638697,7.26666996 5.38681047,6.30067763 6.61867225,6.30067763 C7.85053404,6.30067763 8.82095753,7.26666996 8.82095753,8.49853175 C8.82095753,9.64620154 7.85053404,10.7052482 6.61867225,10.7052482 Z M6.61867225,7.17656976 C5.91411821,7.17656976 5.29375616,7.7038775 5.29375616,8.50148585 C5.29375616,9.29466305 5.90968705,9.82197079 6.61867225,9.82197079 C7.32765745,9.82197079 7.94358834,9.2060399 7.94358834,8.50148585 C7.93915719,7.79250065 7.32322629,7.17656976 6.61867225,7.17656976 L6.61867225,7.17656976 Z" id="形状"></path>
            </g>
        </g>
    </g>
</svg>