<?xml version="1.0" encoding="UTF-8"?>
<svg width="15px" height="14px" viewBox="0 0 15 14" version="1.1" xmlns="http://www.w3.org/2000/svg" xmlns:xlink="http://www.w3.org/1999/xlink">
    <!-- Generator: Sketch 58 (84663) - https://sketch.com -->
    <title>反审核</title>
    <desc>Created with Sketch.</desc>
    <g id="签核管理" stroke="none" stroke-width="1" fill="none" fill-rule="evenodd">
        <g id="生产审核" transform="translate(-1296.000000, -435.000000)" fill="#FFC74A" fill-rule="nonzero">
            <g id="编组-5" transform="translate(1248.000000, 433.000000)">
                <g id="编组-3">
                    <g id="反审核" transform="translate(48.737504, 2.000000)">
                        <path d="M0.0285050722,7.63636631 L1.30772922,7.63636631 C1.62432099,10.5000122 4.05204686,12.7272863 7.00007568,12.7272863 C10.1631907,12.7272863 12.7273538,10.1631232 12.7273538,7 C12.7273538,3.83689314 10.1631907,1.27273 7.00007568,1.27273 C5.3038452,1.27273 3.77981217,2.01014941 2.7311508,3.18181816 L1.13203175,3.18181816 C2.38102461,1.26623585 4.54262165,-1.77635684e-15 7.00000733,-1.77635684e-15 C10.8659806,-1.77635684e-15 14.0000155,3.1340349 14.0000155,7 C14.0000155,10.8659814 10.8659806,14.0000163 7.00000733,14.0000163 C3.34854604,14.0000163 0.349999587,11.2041556 0.0285050722,7.63636631 L0.0285050722,7.63636631 Z" id="路径"></path>
                        <path d="M6.05990158,7.1567427 C5.28321923,6.80146084 4.7437729,6.01955993 4.7437729,5.11209775 C4.7437729,3.87036056 5.75400123,2.86363224 7.00000404,2.86363224 C8.24606975,2.86363224 9.25623518,3.87036056 9.25623518,5.11209775 C9.25623518,6.0195531 8.71678885,6.80145127 7.94010651,7.1567427 L7.94010651,7.5479789 L11.1363758,7.5479789 L11.1363758,9.60909849 L2.86363771,9.60909849 L2.86363771,7.5479789 L6.05990705,7.5479789 L6.05990705,7.1567427 L6.05990158,7.1567427 Z M9.48182549,9.99091202 L9.48182549,10.7545486 L4.58181978,10.7545486 L4.58181978,9.99091202 L9.48182549,9.99091202 Z M1.84800215,1.02340133 L2.13035678,4.19210814 L0.867109603,4.30194469 L0.584819235,1.13317417 L1.84800215,1.02340133 Z" id="形状"></path>
                        <polygon id="路径" points="4.03741876 4.19638184 3.92630949 2.93402607 0.756577287 3.20556213 0.867686557 4.46791789"></polygon>
                    </g>
                </g>
            </g>
        </g>
    </g>
</svg>